# xmcd
#
# Track frame offsets: 
#        150
#        16005
#        31177
#        41980
#        60105
#        77022
#        89287
#        102267
#        119150
#        137157
#
# Disc length: 2062 seconds
#
# Revision: 2
# Processed by: cddbd v1.5.2PL0 Copyright (c) Steve Scherf et al.
# Submitted via: ExactAudioCopy v0.99pb5
#
DISCID=78080c0a
DTITLE=Merle Haggard - Rainbow Stew - Live
DYEAR=1981
DGENRE=Country
TTITLE0=Misery And Gin
TTITLE1=Think I'll Just Stay Here And Drink
TTITLE2=Back To The Barrooms Again
TTITLE3=Our Paths May Never Cross
TTITLE4=Medley: The Running Kind - I'm A Lonesome Fugitive
TTITLE5=Rainbow Stew
TTITLE6=Blue Yodel # 9
TTITLE7=Dealing With The Devil
TTITLE8=Fiddle Breakdown
TTITLE9=Sing Me Back Home
EXTD=
EXTT0=
EXTT1=
EXTT2=
EXTT3=
EXTT4=
EXTT5=
EXTT6=
EXTT7=
EXTT8=
EXTT9=
PLAYORDER=
